<mxfile host="65bd71144e">
    <diagram id="SI7tuCP2dQLLvXjDpIHG" name="Page-1">
        <mxGraphModel dx="625" dy="1760" grid="1" gridSize="10" guides="1" tooltips="1" connect="1" arrows="1" fold="1" page="1" pageScale="1" pageWidth="827" pageHeight="1169" math="0" shadow="0">
            <root>
                <mxCell id="0"/>
                <mxCell id="1" parent="0"/>
                <mxCell id="276" style="edgeStyle=none;rounded=0;html=1;entryX=0.5;entryY=0;entryDx=0;entryDy=0;endArrow=classic;endFill=1;" parent="1" source="3" target="233" edge="1">
                    <mxGeometry relative="1" as="geometry"/>
                </mxCell>
                <mxCell id="3" value="Start" style="strokeWidth=2;html=1;shape=mxgraph.flowchart.terminator;whiteSpace=wrap;" parent="1" vertex="1">
                    <mxGeometry x="375" y="-1110" width="100" height="60" as="geometry"/>
                </mxCell>
                <mxCell id="10" value="Stop" style="strokeWidth=2;html=1;shape=mxgraph.flowchart.terminator;whiteSpace=wrap;rounded=1;" parent="1" vertex="1">
                    <mxGeometry x="375.5" y="30" width="100" height="60" as="geometry"/>
                </mxCell>
                <mxCell id="211" value="" style="edgeStyle=none;html=1;startArrow=none;" parent="1" source="212" target="10" edge="1">
                    <mxGeometry relative="1" as="geometry"/>
                </mxCell>
                <mxCell id="212" value="&lt;font style=&quot;font-size: 12px&quot;&gt;return &lt;br&gt;postal_code_upper&lt;/font&gt;" style="shape=parallelogram;perimeter=parallelogramPerimeter;whiteSpace=wrap;html=1;fixedSize=1;fontSize=8;" parent="1" vertex="1">
                    <mxGeometry x="349.75" y="-60" width="153.5" height="60" as="geometry"/>
                </mxCell>
                <mxCell id="279" value="" style="edgeStyle=none;html=1;fontFamily=Helvetica;fontSize=11;" parent="1" source="233" target="278" edge="1">
                    <mxGeometry relative="1" as="geometry"/>
                </mxCell>
                <mxCell id="233" value="Get full_name" style="shape=parallelogram;perimeter=parallelogramPerimeter;whiteSpace=wrap;html=1;fixedSize=1;" parent="1" vertex="1">
                    <mxGeometry x="364" y="-1010" width="120" height="60" as="geometry"/>
                </mxCell>
                <mxCell id="278" value="Get street_num" style="shape=parallelogram;perimeter=parallelogramPerimeter;whiteSpace=wrap;html=1;fixedSize=1;" parent="1" vertex="1">
                    <mxGeometry x="364" y="-920" width="120" height="60" as="geometry"/>
                </mxCell>
                <mxCell id="285" value="Get street_name" style="shape=parallelogram;perimeter=parallelogramPerimeter;whiteSpace=wrap;html=1;fixedSize=1;" vertex="1" parent="1">
                    <mxGeometry x="364" y="-830" width="120" height="60" as="geometry"/>
                </mxCell>
                <mxCell id="286" value="" style="edgeStyle=none;html=1;fontFamily=Helvetica;fontSize=11;endArrow=classic;endFill=1;" edge="1" parent="1" source="278" target="285">
                    <mxGeometry relative="1" as="geometry">
                        <mxPoint x="424.04166666666663" y="-860" as="sourcePoint"/>
                        <mxPoint x="424.45833333333337" y="-560" as="targetPoint"/>
                    </mxGeometry>
                </mxCell>
                <mxCell id="287" value="Get city" style="shape=parallelogram;perimeter=parallelogramPerimeter;whiteSpace=wrap;html=1;fixedSize=1;" vertex="1" parent="1">
                    <mxGeometry x="365.5" y="-750" width="120" height="60" as="geometry"/>
                </mxCell>
                <mxCell id="288" value="" style="edgeStyle=none;html=1;fontFamily=Helvetica;fontSize=11;startArrow=none;endArrow=classic;endFill=1;" edge="1" parent="1" source="285" target="287">
                    <mxGeometry relative="1" as="geometry">
                        <mxPoint x="424.05555555555554" y="-770" as="sourcePoint"/>
                        <mxPoint x="424.44444444444446" y="-560" as="targetPoint"/>
                    </mxGeometry>
                </mxCell>
                <mxCell id="290" value="Get province" style="shape=parallelogram;perimeter=parallelogramPerimeter;whiteSpace=wrap;html=1;fixedSize=1;" vertex="1" parent="1">
                    <mxGeometry x="365" y="-670" width="120" height="60" as="geometry"/>
                </mxCell>
                <mxCell id="291" value="" style="edgeStyle=none;html=1;fontFamily=Helvetica;fontSize=11;startArrow=none;endArrow=classic;endFill=1;" edge="1" parent="1" source="287" target="290">
                    <mxGeometry relative="1" as="geometry">
                        <mxPoint x="425.3421052631579" y="-690" as="sourcePoint"/>
                        <mxPoint x="424.6578947368421" y="-560" as="targetPoint"/>
                    </mxGeometry>
                </mxCell>
                <mxCell id="295" value="" style="edgeStyle=none;html=1;endArrow=classic;endFill=1;" edge="1" parent="1" source="292" target="294">
                    <mxGeometry relative="1" as="geometry"/>
                </mxCell>
                <mxCell id="292" value="Get postal_code" style="shape=parallelogram;perimeter=parallelogramPerimeter;whiteSpace=wrap;html=1;fixedSize=1;" vertex="1" parent="1">
                    <mxGeometry x="364" y="-570" width="120" height="60" as="geometry"/>
                </mxCell>
                <mxCell id="293" value="" style="edgeStyle=none;html=1;fontFamily=Helvetica;fontSize=11;startArrow=none;endArrow=classic;endFill=1;" edge="1" parent="1" source="290" target="292">
                    <mxGeometry relative="1" as="geometry">
                        <mxPoint x="425.06818181818176" y="-610" as="sourcePoint"/>
                        <mxPoint x="425.43181818181813" y="-450" as="targetPoint"/>
                    </mxGeometry>
                </mxCell>
                <mxCell id="294" value="Get apartment(optional)" style="shape=parallelogram;perimeter=parallelogramPerimeter;whiteSpace=wrap;html=1;fixedSize=1;" vertex="1" parent="1">
                    <mxGeometry x="343.5" y="-470" width="166" height="70" as="geometry"/>
                </mxCell>
                <mxCell id="305" value="" style="edgeStyle=none;html=1;endArrow=classic;endFill=1;" edge="1" parent="1" source="298" target="304">
                    <mxGeometry relative="1" as="geometry"/>
                </mxCell>
                <mxCell id="307" value="" style="edgeStyle=none;html=1;endArrow=classic;endFill=1;" edge="1" parent="1" source="298" target="306">
                    <mxGeometry relative="1" as="geometry"/>
                </mxCell>
                <mxCell id="298" value="if&amp;nbsp; question != None&amp;nbsp;" style="rhombus;whiteSpace=wrap;html=1;" vertex="1" parent="1">
                    <mxGeometry x="354" y="-370" width="145" height="130" as="geometry"/>
                </mxCell>
                <mxCell id="299" value="" style="edgeStyle=none;html=1;endArrow=classic;endFill=1;" edge="1" parent="1" source="294" target="298">
                    <mxGeometry relative="1" as="geometry">
                        <mxPoint x="426.5" y="-400" as="sourcePoint"/>
                        <mxPoint x="426.5" y="-160" as="targetPoint"/>
                    </mxGeometry>
                </mxCell>
                <mxCell id="301" value="no" style="text;html=1;strokeColor=none;fillColor=none;align=center;verticalAlign=middle;whiteSpace=wrap;rounded=0;" vertex="1" parent="1">
                    <mxGeometry x="439" y="-250" width="60" height="30" as="geometry"/>
                </mxCell>
                <mxCell id="303" value="yes" style="text;html=1;strokeColor=none;fillColor=none;align=center;verticalAlign=middle;whiteSpace=wrap;rounded=0;" vertex="1" parent="1">
                    <mxGeometry x="485.5" y="-350" width="60" height="30" as="geometry"/>
                </mxCell>
                <mxCell id="310" style="edgeStyle=none;rounded=0;html=1;endArrow=none;endFill=0;" edge="1" parent="1" source="304">
                    <mxGeometry relative="1" as="geometry">
                        <mxPoint x="426.5" y="-90" as="targetPoint"/>
                    </mxGeometry>
                </mxCell>
                <mxCell id="304" value="&lt;span&gt;post_code = full_name, street_num, street_name, city, province, portal_code, apartment&lt;/span&gt;" style="rounded=1;whiteSpace=wrap;html=1;" vertex="1" parent="1">
                    <mxGeometry x="354.75" y="-190" width="143.5" height="60" as="geometry"/>
                </mxCell>
                <mxCell id="308" style="edgeStyle=none;html=1;entryX=0.5;entryY=0;entryDx=0;entryDy=0;endArrow=classic;endFill=1;rounded=0;" edge="1" parent="1" source="306" target="212">
                    <mxGeometry relative="1" as="geometry">
                        <Array as="points">
                            <mxPoint x="635" y="-100"/>
                            <mxPoint x="620" y="-100"/>
                            <mxPoint x="427" y="-100"/>
                        </Array>
                    </mxGeometry>
                </mxCell>
                <mxCell id="306" value="post_code = full_name, street_num, street_name, city, province, portal_code,&amp;nbsp;" style="rounded=1;whiteSpace=wrap;html=1;" vertex="1" parent="1">
                    <mxGeometry x="560" y="-342.5" width="150" height="75" as="geometry"/>
                </mxCell>
            </root>
        </mxGraphModel>
    </diagram>
</mxfile>